<?xml version="1.0" encoding="iso-8859-1"?>
<!-- Generator: Adobe Illustrator 19.0.0, SVG Export Plug-In . SVG Version: 6.00 Build 0)  -->
<svg version="1.1" id="Layer_1" xmlns="http://www.w3.org/2000/svg" xmlns:xlink="http://www.w3.org/1999/xlink" x="0px" y="0px"
	 viewBox="0 0 512 512" style="enable-background:new 0 0 512 512;" xml:space="preserve">
<path style="fill:#A5A5A5;" d="M503.916,434.08L503.916,434.08c0,23.686-19.202,42.887-42.887,42.887H50.971
	c-23.686,0-42.887-19.202-42.887-42.887l0,0c0-23.686,19.202-42.887,42.887-42.887h410.057
	C484.714,391.193,503.916,410.395,503.916,434.08z"/>
<path style="fill:#CCCAC4;" d="M471.579,134.1v235.421c0,23.812-19.304,43.116-43.116,43.116H83.537
	c-23.812,0-43.116-19.304-43.116-43.116V134.1c0-23.812,19.304-43.116,43.116-43.116h344.926
	C452.275,90.984,471.579,110.288,471.579,134.1z"/>
<path style="fill:#F2EFE2;" d="M428.463,391.193H83.537c-11.906,0-21.558-9.651-21.558-21.558V133.986
	c0-11.906,9.651-21.558,21.558-21.558h344.926c11.906,0,21.558,9.651,21.558,21.558v235.65
	C450.021,381.542,440.37,391.193,428.463,391.193z"/>
<path style="fill:#FFE6AE;" d="M406.905,166.094v171.434c0,5.953-4.826,10.779-10.779,10.779H115.874
	c-5.953,0-10.779-4.826-10.779-10.779V166.094c0-5.953,4.826-10.779,10.779-10.779h280.253
	C402.08,155.315,406.905,160.141,406.905,166.094z"/>
<path style="fill:#FCBB9A;" d="M406.905,166.037v171.548c0,5.922-4.826,10.722-10.779,10.722H115.874
	c-5.575,0-10.159-4.209-10.721-9.607l86.538-86.079h96.646c2.097,0,4.11-0.81,5.617-2.258l98.889-95.048h3.282
	C402.08,155.315,406.905,160.115,406.905,166.037z"/>
<path style="fill:#FC8059;" d="M503.848,43.559l-6.25,52.753c-0.314,2.648-2.727,5.049-5.389,5.36
	c-1.278,0.15-2.446-0.211-3.242-1.006l-12.027-11.964L299.006,259.725c-1.507,1.449-3.521,2.258-5.617,2.258h-96.646l-99.406,98.877
	c-1.578,1.57-3.648,2.355-5.716,2.355c-2.068,0-4.138-0.786-5.716-2.355c-3.157-3.14-3.157-8.232,0-11.372l101.773-101.234
	c1.516-1.508,3.572-2.355,5.716-2.355h96.726l175.384-168.57l-27.576-27.429c-0.798-0.793-1.161-1.954-1.01-3.226
	c0.314-2.648,2.727-5.049,5.389-5.36l53.035-6.217C500.667,34.475,504.475,38.262,503.848,43.559z"/>
<path style="fill:#4C4C4C;" d="M477.065,385.749c1.677-5.035,2.598-10.41,2.598-15.998V133.87c0-2.599-0.199-5.209-0.591-7.76
	c-0.679-4.414-4.799-7.448-9.218-6.763c-4.414,0.678-7.441,4.805-6.763,9.218c0.267,1.741,0.403,3.526,0.403,5.305v235.878
	c0,19.191-15.715,34.803-35.032,34.803H83.537c-19.317,0-35.032-15.612-35.032-34.803V133.87c0-19.19,15.715-34.802,35.032-34.802
	h323.368c4.466,0,8.084-3.618,8.084-8.084s-3.618-8.084-8.084-8.084H83.537c-28.231,0-51.2,22.865-51.2,50.97v235.879
	c0,5.588,0.921,10.963,2.598,15.998C14.433,392.547,0,411.751,0,434.08c0,28.106,22.969,50.971,51.2,50.971h409.6
	c28.231,0,51.2-22.865,51.2-50.971C512,411.751,497.567,392.547,477.065,385.749z M460.8,468.883H51.2
	c-19.317,0-35.032-15.612-35.032-34.803c0-16.155,11.081-29.919,26.442-33.741c9.351,12.368,24.215,20.382,40.927,20.382h344.926
	c16.712,0,31.576-8.014,40.927-20.382c15.361,3.822,26.442,17.586,26.442,33.741C495.832,453.271,480.117,468.883,460.8,468.883z
	 M432.227,55.633l20.162,20.054L285.082,236.495h-96.74c-2.136,0-4.187,0.846-5.701,2.353L80.868,340.081
	c-3.166,3.149-3.179,8.267-0.03,11.432c1.58,1.589,3.656,2.383,5.731,2.383c2.062,0,4.124-0.785,5.701-2.353l99.408-98.881h96.659
	c2.089,0,4.096-0.808,5.602-2.256L463.855,87.093l19.41,19.306c2.205,2.194,5.199,3.391,8.385,3.391
	c0.497,0,0.998-0.028,1.501-0.087c6.361-0.747,11.724-6.094,12.476-12.439l6.251-52.753c0.591-4.988-0.982-9.762-4.314-13.099
	c-3.345-3.347-8.134-4.936-13.162-4.342l-53.037,6.217c-6.357,0.747-11.72,6.093-12.474,12.44c-0.443,3.742,0.773,7.351,3.334,9.904
	C432.224,55.63,432.226,55.631,432.227,55.633z M495.752,43.189l-5.599,47.256l-41.91-41.686L495.752,43.189z M172.463,444.802
	c0,4.466-3.618,8.084-8.084,8.084H78.147c-4.466,0-8.084-3.618-8.084-8.084s3.618-8.084,8.084-8.084h86.232
	C168.845,436.718,172.463,440.337,172.463,444.802z M441.937,444.802c0,4.466-3.618,8.084-8.084,8.084H272.168
	c-4.466,0-8.084-3.618-8.084-8.084s3.618-8.084,8.084-8.084h161.684C438.318,436.718,441.937,440.337,441.937,444.802z
	 M243.604,444.802c0,4.466-3.618,8.084-8.084,8.084h-1.078c-4.466,0-8.084-3.618-8.084-8.084s3.618-8.084,8.084-8.084h1.078
	C239.986,436.718,243.604,440.337,243.604,444.802z M210.189,444.802c0,4.466-3.618,8.084-8.084,8.084h-1.078
	c-4.466,0-8.084-3.618-8.084-8.084s3.618-8.084,8.084-8.084h1.078C206.571,436.718,210.189,440.337,210.189,444.802z"/>
<g>
</g>
<g>
</g>
<g>
</g>
<g>
</g>
<g>
</g>
<g>
</g>
<g>
</g>
<g>
</g>
<g>
</g>
<g>
</g>
<g>
</g>
<g>
</g>
<g>
</g>
<g>
</g>
<g>
</g>
</svg>
